<svg xmlns="http://www.w3.org/2000/svg" width="330" height="330" xmlns:v="https://vecta.io/nano"><style><![CDATA[.B{fill:#f9b042e5}.C{fill:#f49f35e5}.D{fill:#a84b1ee5}.E{fill:#eb8a12e5}.F{fill:#f87d23ff}.G{fill:#f19325e5}.H{fill:#c96619e5}.I{fill:#fa9d6fff}.J{fill:#fc7569ff}.K{fill:#00000099}.L{fill:#ffffffff}]]></style><g class="K"><path d="M110 0h90v10h-90z"/><path d="M100 10h110v10H100z"/><path d="M100 20h50v10h-50z"/></g><path fill="#00eae199" d="M150 20h30v10h-30z"/><path d="M180 20h30v10h-30zM50 30h20v10H50zm40 0h70v10H90z" class="K"/><path fill="#00eae199" d="M160 30h10v10h-10z"/><g class="K"><path d="M170 30h70v10h-70zm90 0h20v10h-20z"/><path d="M50 40h230v10H50z"/><path d="M50 50h50v10H50z"/></g><path fill="#431e0cff" d="M100 50h130v10H100z"/><path d="M230 50h50v10h-50z" class="K"/><path d="M80 60h20v10H80z" class="D"/><path d="M100 60h10v10h-10z" class="B"/><path d="M110 60h40v10h-40z" class="C"/><path d="M150 60h30v10h-30z" class="B"/><path d="M180 60h30v10h-30z" class="E"/><path d="M210 60h30v10h-30zM80 70h10v10H80z" class="D"/><path d="M90 70h10v10H90z" class="F"/><path d="M100 70h60v10h-60z" class="C"/><path d="M160 70h20v10h-20z" class="B"/><path d="M180 70h40v10h-40z" class="E"/><path fill="#f26e10ff" d="M220 70h10v10h-10z"/><path d="M230 70h10v10h-10z" class="D"/><path d="M70 80h10v10H70z" class="L"/><path d="M80 80h10v10H80z" class="I"/><path d="M90 80h10v10H90z" class="J"/><path d="M100 80h10v10h-10z" class="F"/><path d="M110 80h60v10h-60z" class="C"/><path d="M170 80h10v10h-10z" class="B"/><path d="M180 80h20v10h-20z" class="F"/><path fill="#f26e10ff" d="M200 80h20v10h-20z"/><path d="M220 80h10v10h-10z" class="J"/><path d="M230 80h10v10h-10z" class="I"/><path d="M240 80h10v10h-10z" class="L"/><path d="M70 90h10v10H70z" class="I"/><path fill="#960f03ff" d="M80 90h10v10H80z"/><path fill="#ffe98aff" d="M90 90h10v10H90z"/><path fill="#fa561eff" d="M100 90h10v10h-10z"/><path fill="#f84f18ff" d="M110 90h30v10h-30z"/><path d="M140 90h10v10h-10z" class="C"/><path fill="#f6761eff" d="M150 90h30v10h-30z"/><path fill="#fa561eff" d="M180 90h30v10h-30z"/><path fill="#f4460aff" d="M210 90h10v10h-10z"/><path fill="#ffe98aff" d="M220 90h10v10h-10z"/><path fill="#960f03ff" d="M230 90h10v10h-10z"/><path d="M240 90h10v10h-10z" class="J"/><path fill="#fb1a0699" d="M250 90h20v10h-20z"/><path d="M70 100h10v10H70z" class="L"/><path d="M80 100h10v10H80z" class="I"/><path d="M90 100h10v10H90z" class="J"/><path d="M100 100h10v10h-10z" class="F"/><path d="M110 100h60v10h-60z" class="C"/><path d="M170 100h10v10h-10z" class="G"/><path d="M180 100h40v10h-40z" class="F"/><path d="M220 100h10v10h-10z" class="J"/><path d="M230 100h10v10h-10z" class="I"/><path d="M240 100h10v10h-10z" class="L"/><path d="M70 110h10v10H70z" class="D"/><path d="M80 110h10v10H80z" class="B"/><path d="M90 110h10v10H90z" class="F"/><path d="M100 110h20v10h-20z" class="B"/><path d="M120 110h50v10h-50z" class="C"/><path d="M170 110h50v10h-50z" class="B"/><path d="M220 110h10v10h-10z" class="F"/><path d="M230 110h10v10h-10z" class="B"/><path d="M240 110h10v10h-10zM70 120h10v10H70z" class="D"/><path d="M80 120h50v10H80z" class="B"/><path d="M130 120h50v10h-50z" class="C"/><path d="M180 120h60v10h-60z" class="B"/><path d="M240 120h10v10h-10zM70 130h10v10H70z" class="D"/><path d="M80 130h50v10H80z" class="B"/><path d="M130 130h50v10h-50z" class="C"/><path d="M180 130h60v10h-60z" class="B"/><path d="M240 130h10v10h-10zM70 140h10v10H70z" class="D"/><path d="M80 140h20v10H80z" class="B"/><path d="M100 140h20v10h-20z" class="G"/><path d="M120 140h10v10h-10z" class="B"/><path d="M130 140h60v10h-60z" class="C"/><path d="M190 140h50v10h-50z" class="B"/><path d="M240 140h10v10h-10zM70 150h10v10H70z" class="D"/><path d="M80 150h50v10H80z" class="B"/><path d="M130 150h60v10h-60z" class="C"/><path d="M190 150h10v10h-10z" class="G"/><path d="M200 150h40v10h-40z" class="B"/><path d="M240 150h10v10h-10zM70 160h10v10H70z" class="D"/><path d="M80 160h60v10H80z" class="B"/><path d="M140 160h50v10h-50z" class="C"/><path d="M190 160h20v10h-20z" class="G"/><path d="M210 160h30v10h-30z" class="B"/><path d="M240 160h10v10h-10zM70 170h10v10H70z" class="D"/><path d="M80 170h50v10H80z" class="B"/><path d="M130 170h70v10h-70z" class="C"/><path d="M200 170h40v10h-40z" class="B"/><path d="M240 170h10v10h-10zM70 180h10v10H70z" class="D"/><path d="M80 180h50v10H80z" class="B"/><path d="M130 180h100v10H130z" class="C"/><path d="M230 180h10v10h-10z" class="B"/><path d="M240 180h10v10h-10zM70 190h10v10H70z" class="D"/><path d="M80 190h60v10H80z" class="B"/><path d="M140 190h100v10H140z" class="C"/><path d="M240 190h10v10h-10zM70 200h10v10H70z" class="D"/><path d="M80 200h60v10H80z" class="B"/><path d="M140 200h100v10H140z" class="C"/><path d="M240 200h10v10h-10zM80 210h10v10H80z" class="D"/><path d="M90 210h30v10H90z" class="B"/><path d="M120 210h20v10h-20z" class="G"/><path d="M140 210h100v10H140z" class="C"/><path d="M240 210h10v10h-10zM80 220h10v10H80z" class="D"/><path d="M90 220h50v10H90z" class="B"/><path fill="#603a0eff" d="M140 220h10v10h-10z"/><path fill="#613f15ff" d="M150 220h40v10h-40z"/><path d="M190 220h40v10h-40z" class="C"/><path d="M230 220h20v10h-20zM80 230h10v10H80z" class="D"/><path d="M90 230h50v10H90z" class="B"/><path d="M140 230h20v10h-20z" class="G"/><path d="M160 230h20v10h-20z" class="C"/><path d="M180 230h50v10h-50z" class="E"/><path d="M230 230h10v10h-10zM80 240h10v10H80z" class="D"/><path d="M90 240h10v10H90z" class="H"/><path d="M100 240h40v10h-40z" class="B"/><path d="M140 240h10v10h-10z" class="C"/><path d="M150 240h10v10h-10z" class="G"/><path d="M160 240h70v10h-70z" class="E"/><path d="M230 240h10v10h-10zM80 250h10v10H80z" class="D"/><path d="M90 250h10v10H90z" class="H"/><path d="M100 250h10v10h-10z" class="E"/><path d="M110 250h30v10h-30z" class="B"/><path d="M140 250h30v10h-30z" class="C"/><path d="M170 250h40v10h-40z" class="E"/><path d="M210 250h20v10h-20z" class="H"/><path d="M230 250h10v10h-10zM80 260h10v10H80z" class="D"/><path d="M90 260h20v10H90z" class="H"/><path d="M110 260h10v10h-10z" class="E"/><path d="M120 260h20v10h-20z" class="B"/><path d="M140 260h30v10h-30z" class="C"/><path d="M170 260h40v10h-40z" class="E"/><path d="M210 260h20v10h-20z" class="H"/><path d="M230 260h10v10h-10zM80 270h30v10H80z" class="D"/><path d="M110 270h10v10h-10z" class="E"/><path d="M120 270h20v10h-20z" class="B"/><path d="M140 270h20v10h-20z" class="C"/><path d="M160 270h30v10h-30z" class="E"/><path d="M190 270h20v10h-20z" class="H"/><g class="D"><path d="M210 270h20v10h-20z"/><path d="M100 280h110v10H100z"/></g></svg>